HIERARCHY
ROOT Hips
{
 OFFSET 0.000000 0.000000 0.000000
 CHANNELS 6 Xposition Yposition Zposition Yrotation Xrotation Zrotation
 JOINT Chest
 {
  OFFSET 0.000000 9.503218 -1.055913
  CHANNELS 3 Yrotation Xrotation Zrotation
  JOINT Chest2
  {
   OFFSET 0.000000 10.521129 0.000000
   CHANNELS 3 Yrotation Xrotation Zrotation
   JOINT Chest3
   {
    OFFSET 0.000000 9.605634 -0.001300
    CHANNELS 3 Yrotation Xrotation Zrotation
    JOINT Chest4
    {
     OFFSET 0.000000 9.594906 -0.001302
     CHANNELS 3 Yrotation Xrotation Zrotation
     JOINT Neck
     {
      OFFSET 0.000000 13.450940 0.000000
      CHANNELS 3 Yrotation Xrotation Zrotation
      JOINT Head
      {
       OFFSET 0.000000 8.933103 0.002797
       CHANNELS 3 Yrotation Xrotation Zrotation
       End Site
       {
        OFFSET 0.000000 16.603328 0.000376
       }
      }
     }
     JOINT RightCollar
     {
      OFFSET -2.929025 7.540715 0.000000
      CHANNELS 3 Yrotation Xrotation Zrotation
      JOINT RightShoulder
      {
       OFFSET -13.689620 0.000000 0.000000
       CHANNELS 3 Yrotation Xrotation Zrotation
       JOINT RightElbow
       {
        OFFSET -29.363669 0.000000 0.000000
        CHANNELS 3 Yrotation Xrotation Zrotation
        JOINT RightWrist
        {
         OFFSET -23.995890 0.000000 0.000000
         CHANNELS 3 Yrotation Xrotation Zrotation
         End Site
         {
          OFFSET -17.894743 0.000000 0.000000
         }
        }
       }
      }
     }
     JOINT LeftCollar
     {
      OFFSET 2.929025 7.540715 0.000000
      CHANNELS 3 Yrotation Xrotation Zrotation
      JOINT LeftShoulder
      {
       OFFSET 13.689620 0.000000 0.000000
       CHANNELS 3 Yrotation Xrotation Zrotation
       JOINT LeftElbow
       {
        OFFSET 29.363669 0.000000 0.000000
        CHANNELS 3 Yrotation Xrotation Zrotation
        JOINT LeftWrist
        {
         OFFSET 23.995890 0.000000 0.000000
         CHANNELS 3 Yrotation Xrotation Zrotation
         End Site
         {
          OFFSET 17.894743 0.000000 0.000000
         }
        }
       }
      }
     }
    }
   }
  }
 }
 JOINT RightHip
 {
  OFFSET -7.818676 0.004256 -0.000473
  CHANNELS 3 Yrotation Xrotation Zrotation
  JOINT RightKnee
  {
   OFFSET 0.000000 -40.741717 -0.000307
   CHANNELS 3 Yrotation Xrotation Zrotation
   JOINT RightAnkle
   {
    OFFSET 0.000000 -39.719668 -0.000517
    CHANNELS 3 Yrotation Xrotation Zrotation
    JOINT RightToe
    {
     OFFSET 0.000000 -6.310187 14.273950
     CHANNELS 3 Yrotation Xrotation Zrotation
     End Site
     {
      OFFSET 0.000000 -1.462847 6.233434
     }
    }
   }
  }
 }
 JOINT LeftHip
 {
  OFFSET 7.818676 0.002110 -0.000234
  CHANNELS 3 Yrotation Xrotation Zrotation
  JOINT LeftKnee
  {
   OFFSET 0.000000 -40.741717 -0.000307
   CHANNELS 3 Yrotation Xrotation Zrotation
   JOINT LeftAnkle
   {
    OFFSET 0.000000 -39.719668 -0.000517
    CHANNELS 3 Yrotation Xrotation Zrotation
    JOINT LeftToe
    {
     OFFSET 0.000000 -6.310187 14.273950
     CHANNELS 3 Yrotation Xrotation Zrotation
     End Site
     {
      OFFSET 0.000000 -1.462847 6.233434
     }
    }
   }
  }
 }
}
MOTION
Frames: 6
Frame Time: 0.016667
-36.567423 79.322675 -39.860001 129.004573 35.199783 5.614498 2.474495 -5.733215 -8.040149 1.361523 -8.405779 -3.572881 1.348589 -2.586970 -3.434545 0.735141 3.882929 -2.574116 -2.865432 22.049949 -0.244859 -5.111878 4.955342 0.349269 -11.653677 -8.396548 -11.723609 85.185003 -27.451970 -14.763714 -9.521115 33.540325 -27.102452 3.567228 0.373231 -53.607448 -7.179719 -6.299404 7.103759 -115.638338 -26.440695 19.250639 -9.617071 47.332957 8.375815 6.402891 -4.385245 61.719169 -7.137644 -16.790894 1.204749 -4.311336 16.651920 0.126685 -26.280597 -34.237226 8.069025 0.000000 0.000000 0.000000 -0.889630 -26.639618 8.796348 6.811035 35.738126 -5.051759 9.177382 -24.883866 -18.495300 -0.024039 -7.964678 1.599199
-36.772341 79.413735 -39.945599 128.619168 34.812789 5.192851 2.532322 -5.410002 -7.775079 1.384061 -8.262454 -3.454744 1.371253 -2.443699 -3.314137 0.762572 3.990938 -2.484418 -2.875420 22.042931 -0.212526 -5.138955 4.943885 0.410671 -11.630865 -8.725450 -11.953070 85.096265 -27.453732 -14.785814 -9.225262 33.346665 -26.881161 3.657221 0.439432 -53.845529 -7.113162 -6.648114 7.033268 -115.601238 -26.388281 19.179533 -9.459055 47.127340 8.420691 6.463718 -4.384652 61.848622 -6.856285 -16.408519 1.224277 -4.403722 16.474092 0.124002 -26.177814 -33.885455 7.974950 0.000000 0.000000 0.000000 0.086436 -27.459943 7.907053 3.374171 39.339083 -6.588834 8.185802 -24.624112 -19.477989 0.085727 -8.427660 4.672439
-36.996403 79.500932 -40.055475 128.290593 34.585906 4.796548 2.569537 -5.174463 -7.498313 1.395259 -8.157601 -3.331325 1.382613 -2.338869 -3.189597 0.781614 4.070190 -2.391406 -2.889997 22.009815 -0.198050 -5.169783 4.883304 0.442209 -11.527306 -9.035998 -12.172593 84.949536 -27.468225 -14.790394 -8.971547 33.194256 -26.726764 3.778428 0.487733 -54.090544 -7.000755 -6.952787 6.979942 -115.637550 -26.390047 19.150593 -9.336311 46.964530 8.469117 6.563758 -4.384252 61.951031 -6.638663 -16.202135 1.282518 -4.520419 16.321221 0.065101 -26.062641 -33.536437 7.926770 0.000000 0.000000 0.000000 0.946404 -27.941778 6.789724 0.480121 41.540630 -7.695268 7.331524 -24.448769 -20.166963 0.207828 -9.301810 7.348170
-37.264039 79.610046 -40.174742 128.069901 34.682538 4.490580 2.574741 -5.085613 -7.218922 1.389470 -8.117361 -3.206453 1.376971 -2.298607 -3.065315 0.787530 4.101091 -2.298263 -2.912914 21.914416 -0.229223 -5.204127 4.705479 0.395878 -11.265739 -9.343193 -12.353965 84.715683 -27.488257 -14.787324 -8.806900 33.142221 -26.713136 3.918910 0.523950 -54.335908 -6.774008 -7.166557 6.953554 -115.821641 -26.490240 19.242595 -9.328658 46.867737 8.532794 6.717573 -4.383731 62.031065 -6.497187 -16.338044 1.389386 -4.691343 16.132953 -0.109924 -25.927990 -33.147993 7.880895 0.000000 -0.000000 -0.000000 1.614610 -28.063239 5.358465 -1.208639 41.711302 -7.660155 6.432830 -24.113625 -20.621719 -0.002588 -11.489070 9.664259
-37.550819 79.715297 -40.318285 127.898671 34.940878 4.202994 2.559708 -5.084269 -6.927088 1.372770 -8.115663 -3.075838 1.360415 -2.296866 -2.936395 0.785439 4.103161 -2.201456 -2.939775 21.792805 -0.277997 -5.241148 4.478488 0.319636 -10.922245 -9.628914 -12.529019 84.424373 -27.521086 -14.767998 -8.682704 33.131899 -26.764611 4.091108 0.541923 -54.587978 -6.501667 -7.334563 6.942580 -116.080474 -26.642999 19.378648 -9.354476 46.814742 8.601641 6.910629 -4.383362 62.084007 -6.421237 -16.649436 1.532924 -4.885301 15.968822 -0.340620 -25.779746 -32.762639 7.880491 0.000000 0.000000 0.000000 2.132365 -27.843995 3.718599 -2.146495 40.558052 -6.813649 5.753307 -23.826997 -20.867223 -0.521538 -14.053986 11.743419
-37.811899 79.755811 -40.498019 127.780057 35.120836 3.841796 2.516915 -5.094647 -6.603132 1.342486 -8.118677 -2.931087 1.330383 -2.299820 -2.794721 0.774235 4.101800 -2.095093 -2.972779 21.691665 -0.305486 -5.294947 4.290700 0.282714 -10.617868 -9.848366 -12.741453 84.096512 -27.567511 -14.716945 -8.576451 33.092098 -26.792282 4.297097 0.515004 -54.803532 -6.324563 -7.505419 6.947141 -116.309942 -26.779048 19.449512 -9.264150 46.767314 8.678212 7.114496 -4.377515 62.089687 -6.498332 -16.915123 1.723723 -5.021674 16.005308 -0.489487 -25.641949 -32.516242 8.039708 0.000000 -0.000000 -0.000000 2.097331 -27.234957 2.447311 -2.114316 38.820282 -5.741616 6.258495 -24.059884 -20.365097 -0.944205 -15.406990 12.231602
